<svg width="41" height="40" viewBox="0 0 41 40" fill="none" xmlns="http://www.w3.org/2000/svg">
<g clip-path="url(#clip0_132_565)">
<path d="M20.291 40C31.3444 40 40.3049 31.0457 40.3049 20C40.3049 8.9543 31.3444 0 20.291 0C9.23763 0 0.277107 8.9543 0.277107 20C0.277107 31.0457 9.23763 40 20.291 40Z" fill="#2DAAE1"/>
<path d="M33.1236 12.0443C32.1795 12.4629 31.1656 12.7459 30.0995 12.8731C31.1876 12.222 32.0211 11.1903 32.4146 9.96241C31.3811 10.5758 30.25 11.0077 29.0704 11.2392C28.1105 10.2167 26.7417 9.57837 25.2273 9.57837C22.3205 9.57837 19.9631 11.9332 19.9631 14.8397C19.9631 15.2515 20.0095 15.6533 20.0987 16.039C15.7229 15.8193 11.8435 13.7247 9.24676 10.5419C8.79333 11.3192 8.5338 12.223 8.5338 13.1873C8.5338 15.0124 9.46341 16.6227 10.8759 17.566C10.0397 17.5401 9.2219 17.3146 8.49078 16.9082V16.9747C8.49078 19.5241 10.3054 21.6499 12.7141 22.1333C12.2716 22.2545 11.8072 22.3178 11.3268 22.3178C10.9872 22.3178 10.6576 22.2857 10.3357 22.2252C11.0057 24.3147 12.9502 25.8358 15.2534 25.8787C13.4515 27.2903 11.181 28.1317 8.71498 28.1317C8.29024 28.1317 7.87045 28.1064 7.45835 28.0567C9.78873 29.55 12.5557 30.4217 15.5291 30.4217C25.2129 30.4217 30.5091 22.4046 30.5091 15.4521C30.5091 15.2238 30.5041 14.9972 30.4931 14.7715C31.5249 14.0257 32.4157 13.1022 33.1236 12.0443V12.0443Z" fill="white"/>
</g>
<defs>
<clipPath id="clip0_132_565">
<rect width="40.0278" height="40" fill="white" transform="translate(0.277069)"/>
</clipPath>
</defs>
</svg>
