<svg width="41" height="40" viewBox="0 0 41 40" fill="none" xmlns="http://www.w3.org/2000/svg">
<g clip-path="url(#clip0_132_562)">
<rect x="8.24792" y="11" width="25.0174" height="17" fill="white"/>
<path fill-rule="evenodd" clip-rule="evenodd" d="M20.2563 0C31.3098 0 40.2703 8.95429 40.2703 20.0001C40.2703 31.0458 31.3098 40.0001 20.2563 40.0001C9.20288 40.0001 0.242371 31.0458 0.242371 20.0001C0.242371 8.95429 9.20288 0 20.2563 0ZM30.3667 15.8757C30.3667 15.8757 30.1652 14.4538 29.545 13.8294C28.7591 13.0083 27.8791 13.003 27.4768 12.9555C24.5905 12.7453 20.2552 12.7453 20.2552 12.7453H20.2477C20.2477 12.7453 15.9145 12.7453 13.0265 12.9555C12.6226 13.0045 11.7438 13.0079 10.9583 13.8294C10.3377 14.4538 10.1404 15.8757 10.1404 15.8757C10.1404 15.8757 9.93491 17.5441 9.93491 19.2162V20.7797C9.93491 22.4483 10.1401 24.1201 10.1401 24.1201C10.1401 24.1201 10.3416 25.542 10.958 26.1675C11.7436 26.9886 12.776 26.962 13.2368 27.0495C14.8893 27.2071 20.2566 27.2547 20.2566 27.2547C20.2566 27.2547 24.5955 27.247 27.4819 27.0407C27.8857 26.9931 28.7641 26.9881 29.5501 26.1666C30.1706 25.5424 30.3718 24.1188 30.3718 24.1188C30.3718 24.1188 30.5773 22.4503 30.5773 20.7784V19.215C30.573 17.5464 30.3677 15.8746 30.3677 15.8746L30.3666 15.8757L30.3665 15.8755L30.3667 15.8757ZM18.117 22.6765V16.8791L23.6933 19.7875L18.117 22.6765Z" fill="#FF0000"/>
</g>
<defs>
<clipPath id="clip0_132_562">
<rect width="40.0278" height="40" fill="white" transform="translate(0.242371)"/>
</clipPath>
</defs>
</svg>