<svg
    width="25"
    height="25"
    viewBox="0 0 40 40"
    fill="none"
    xmlns="http://www.w3.org/2000/svg"
>
    <path
        d="M28.6875 32.2266L7.77344 11.3125C6.02344 13.7578 5 16.7578 5 20C5 28.2812 11.7188 35 20 35C23.2422 35 26.2422 33.9766 28.6875 32.2266ZM32.2266 28.6875C33.9766 26.2422 35 23.2422 35 20C35 11.7188 28.2812 5 20 5C16.7578 5 13.7578 6.02344 11.3125 7.77344L32.2266 28.6875ZM40 20C40 31.0469 31.0469 40 20 40C8.95313 40 0 31.0469 0 20C0 8.95313 8.95313 0 20 0C31.0469 0 40 8.95313 40 20Z"
        fill="black"
    ></path>
</svg>