<svg
    width="30"
    height="30"
    viewBox="0 0 30 46"
    fill="none"
    xmlns="http://www.w3.org/2000/svg"
>
    <g clip-path="url(#clip0_363_5286)">
        <path
            d="M29.1189 13.5304C30.2908 12.4073 30.2908 10.5835 29.1189 9.46045C27.9471 8.3374 26.0439 8.3374 24.8721 9.46045L15.0002 18.93L5.11895 9.46943C3.94707 8.34639 2.04395 8.34639 0.87207 9.46943C-0.299805 10.5925 -0.299805 12.4163 0.87207 13.5394L10.7533 22.9999L0.881445 32.4694C-0.29043 33.5925 -0.29043 35.4163 0.881445 36.5394C2.05332 37.6624 3.95645 37.6624 5.12832 36.5394L15.0002 27.0698L24.8814 36.5304C26.0533 37.6534 27.9564 37.6534 29.1283 36.5304C30.3002 35.4073 30.3002 33.5835 29.1283 32.4604L19.2471 22.9999L29.1189 13.5304Z"
            fill="black"
        ></path>
    </g>
    <defs>
        <clipPath id="clip0_363_5286">
            <rect width="30" height="46" fill="white"></rect>
        </clipPath>
    </defs>
</svg>