<svg width="25" height="25" viewBox="0 0 38 40" fill="none" xmlns="http://www.w3.org/2000/svg">
    <path
        d="M37.7422 13.0156C37.9922 13.6953 37.7813 14.4531 37.2422 14.9375L33.8594 18.0156C33.9453 18.6641 33.9922 19.3281 33.9922 20C33.9922 20.6719 33.9453 21.3359 33.8594 21.9844L37.2422 25.0625C37.7813 25.5469 37.9922 26.3047 37.7422 26.9844C37.3985 27.9141 36.9844 28.8047 36.5078 29.6641L36.1406 30.2969C35.625 31.1562 35.0469 31.9687 34.4141 32.7344C33.9531 33.2969 33.1875 33.4844 32.5 33.2656L28.1485 31.8828C27.1016 32.6875 25.9453 33.3594 24.711 33.8672L23.7344 38.3281C23.5781 39.0391 23.0313 39.6016 22.3125 39.7187C21.2344 39.8984 20.125 39.9922 18.9922 39.9922C17.8594 39.9922 16.75 39.8984 15.6719 39.7187C14.9531 39.6016 14.4063 39.0391 14.25 38.3281L13.2735 33.8672C12.0391 33.3594 10.8828 32.6875 9.83596 31.8828L5.49221 33.2734C4.80471 33.4922 4.03908 33.2969 3.57814 32.7422C2.94533 31.9766 2.36721 31.1641 1.85158 30.3047L1.4844 29.6719C1.00783 28.8125 0.59377 27.9219 0.25002 26.9922C2.0083e-05 26.3125 0.210958 25.5547 0.75002 25.0703L4.13283 21.9922C4.04689 21.3359 4.00002 20.6719 4.00002 20C4.00002 19.3281 4.04689 18.6641 4.13283 18.0156L0.75002 14.9375C0.210958 14.4531 2.0083e-05 13.6953 0.25002 13.0156C0.59377 12.0859 1.00783 11.1953 1.4844 10.3359L1.85158 9.70312C2.36721 8.84375 2.94533 8.03125 3.57814 7.26562C4.03908 6.70313 4.80471 6.51562 5.49221 6.73437L9.84377 8.11719C10.8906 7.3125 12.0469 6.64062 13.2813 6.13281L14.2578 1.67187C14.4141 0.960937 14.961 0.398437 15.6797 0.28125C16.7578 0.09375 17.8672 0 19 0C20.1328 0 21.2422 0.09375 22.3203 0.273438C23.0391 0.390625 23.586 0.953125 23.7422 1.66406L24.7188 6.125C25.9531 6.63281 27.1094 7.30469 28.1563 8.10938L32.5078 6.72656C33.1953 6.50781 33.961 6.70313 34.4219 7.25781C35.0547 8.02344 35.6328 8.83594 36.1485 9.69531L36.5156 10.3281C36.9922 11.1875 37.4063 12.0781 37.75 13.0078L37.7422 13.0156ZM19 26.25C22.4531 26.25 25.25 23.4531 25.25 20C25.25 16.5469 22.4531 13.75 19 13.75C15.5469 13.75 12.75 16.5469 12.75 20C12.75 23.4531 15.5469 26.25 19 26.25Z"
        fill="black" />
</svg>