<svg
    width="100"
    height="100"
    viewBox="0 0 150 150"
    fill="none"
    xmlns="http://www.w3.org/2000/svg"
>
    <g clip-path="url(#clip0_321_4521)">
        <path
            d="M51.2695 51.2695C54.0234 48.5449 58.4766 48.5449 60.9668 51.2695L74.7363 65.0684L88.7695 51.2695C91.5234 48.5449 95.9766 48.5449 98.4668 51.2695C101.455 54.0234 101.455 58.4766 98.4668 60.9668L84.9316 74.7363L98.4668 88.7695C101.455 91.5234 101.455 95.9766 98.4668 98.4668C95.9766 101.455 91.5234 101.455 88.7695 98.4668L74.7363 84.9316L60.9668 98.4668C58.4766 101.455 54.0234 101.455 51.2695 98.4668C48.5449 95.9766 48.5449 91.5234 51.2695 88.7695L65.0684 74.7363L51.2695 60.9668C48.5449 58.4766 48.5449 54.0234 51.2695 51.2695ZM150 75C150 116.426 116.426 150 75 150C33.5742 150 0 116.426 0 75C0 33.5742 33.5742 0 75 0C116.426 0 150 33.5742 150 75ZM75 14.0625C41.3379 14.0625 14.0625 41.3379 14.0625 75C14.0625 108.662 41.3379 135.938 75 135.938C108.662 135.938 135.938 108.662 135.938 75C135.938 41.3379 108.662 14.0625 75 14.0625Z"
            fill="#E30000"
        ></path>
    </g>
    <defs>
        <clipPath id="clip0_321_4521">
            <rect width="150" height="150" fill="white"></rect>
        </clipPath>
    </defs>
</svg>