<svg
    width="25"
    height="25"
    viewBox="0 0 48 38"
    fill="none"
    xmlns="http://www.w3.org/2000/svg"
>
    <g clip-path="url(#clip0_321_5173)">
        <path
            d="M24.0002 2.375C17.2669 2.375 11.8752 4.87214 7.95024 7.84429C4.05024 10.7893 1.4419 14.3179 0.208569 16.7404C-0.0664307 17.2764 -0.0664307 17.8736 0.208569 18.4096C1.4419 20.8321 4.05024 24.3607 7.95024 27.3057C11.8752 30.2779 17.2669 32.775 24.0002 32.775C30.7336 32.775 36.1252 30.2779 40.0502 27.3057C43.9502 24.3539 46.5586 20.8321 47.8002 18.4096C48.0752 17.8736 48.0752 17.2764 47.8002 16.7404C46.5586 14.3179 43.9502 10.7893 40.0502 7.84429C36.1252 4.87214 30.7336 2.375 24.0002 2.375ZM36.0002 17.575C36.0002 22.9696 30.6252 27.3464 24.0002 27.3464C17.3752 27.3464 12.0002 22.9696 12.0002 17.575C12.0002 12.1804 17.3752 7.80357 24.0002 7.80357C30.6252 7.80357 36.0002 12.1804 36.0002 17.575ZM24.0002 13.2321C24.0002 15.6275 21.6086 17.575 18.6669 17.575C17.7086 17.575 16.8086 17.3714 16.0336 17.005C16.0169 17.195 16.0002 17.3782 16.0002 17.575C16.0002 21.1714 19.5836 24.0893 24.0002 24.0893C28.4169 24.0893 32.0002 21.1714 32.0002 17.575C32.0002 13.9786 28.4169 11.0607 24.0002 11.0607C23.7669 11.0607 23.5336 11.0675 23.3002 11.0879C23.7419 11.7189 24.0002 12.4518 24.0002 13.2321Z"
            fill="black"
        ></path>
    </g>
    <defs>
        <clipPath id="clip0_321_5173">
            <rect width="48" height="38" fill="white"></rect>
        </clipPath>
    </defs>
</svg>