<svg width="23" height="25" viewBox="0 0 23 25" fill="none" xmlns="http://www.w3.org/2000/svg">
<path d="M23.9648 4.16361L20.2148 0.413609C20.0842 0.282509 19.929 0.178488 19.758 0.107512C19.5871 0.0365358 19.4038 0 19.2188 0C19.0337 0 18.8504 0.0365358 18.6795 0.107512C18.5085 0.178488 18.3533 0.282509 18.2227 0.413609L6.97266 11.6636C6.84166 11.7942 6.73793 11.9494 6.66751 12.1205C6.5971 12.2915 6.5614 12.4748 6.5625 12.6597V16.4097C6.5625 16.7827 6.71066 17.1403 6.97438 17.4041C7.2381 17.6678 7.59579 17.816 7.96875 17.816H11.7188C12.0913 17.8131 12.4483 17.6661 12.7148 17.4058L23.9648 6.1558C24.0959 6.02515 24.2 5.86991 24.2709 5.69898C24.3419 5.52805 24.3785 5.34479 24.3785 5.1597C24.3785 4.97462 24.3419 4.79136 24.2709 4.62043C24.2 4.44949 24.0959 4.29425 23.9648 4.16361ZM19.2188 3.40189L20.9766 5.1597L19.6875 6.44877L17.9297 4.69095L19.2188 3.40189ZM11.1328 15.0035H9.375V13.2456L15.9375 6.68314L17.6953 8.44095L11.1328 15.0035ZM23.4375 12.73V22.0347C23.4344 22.6554 23.1865 23.2497 22.7476 23.6886C22.3088 24.1275 21.7144 24.3754 21.0938 24.3785H2.34375C1.7231 24.3754 1.12874 24.1275 0.689872 23.6886C0.250999 23.2497 0.00308021 22.6554 0 22.0347V3.2847C0.00308021 2.66405 0.250999 2.0697 0.689872 1.63082C1.12874 1.19195 1.7231 0.944033 2.34375 0.940953H11.6484C12.0214 0.940953 12.3791 1.08911 12.6428 1.35283C12.9065 1.61656 13.0547 1.97424 13.0547 2.3472C13.0547 2.72016 12.9065 3.07785 12.6428 3.34157C12.3791 3.60529 12.0214 3.75345 11.6484 3.75345H2.8125V21.566H20.625V12.73C20.625 12.3571 20.7732 11.9994 21.0369 11.7356C21.3006 11.4719 21.6583 11.3238 22.0312 11.3238C22.4042 11.3238 22.7619 11.4719 23.0256 11.7356C23.2893 11.9994 23.4375 12.3571 23.4375 12.73V12.73Z" fill="#0FA958"/>
</svg>
