<svg width="25" height="25" viewBox="0 0 25 25" fill="none" xmlns="http://www.w3.org/2000/svg">
<path d="M24.2461 4.50394L20.4961 0.753941C20.3654 0.622841 20.2102 0.51882 20.0393 0.447844C19.8683 0.376868 19.6851 0.340332 19.5 0.340332C19.3149 0.340332 19.1317 0.376868 18.9607 0.447844C18.7898 0.51882 18.6346 0.622841 18.5039 0.753941L7.25391 12.0039C7.12291 12.1345 7.01918 12.2898 6.94876 12.4608C6.87835 12.6318 6.84265 12.8151 6.84375 13V16.75C6.84375 17.123 6.99191 17.4807 7.25563 17.7444C7.51935 18.0081 7.87704 18.1563 8.25 18.1563H12C12.3726 18.1534 12.7295 18.0064 12.9961 17.7461L24.2461 6.49613C24.3772 6.36548 24.4812 6.21024 24.5522 6.03931C24.6232 5.86838 24.6597 5.68512 24.6597 5.50003C24.6597 5.31495 24.6232 5.13169 24.5522 4.96076C24.4812 4.78983 24.3772 4.63459 24.2461 4.50394ZM19.5 3.74222L21.2578 5.50003L19.9688 6.7891L18.2109 5.03128L19.5 3.74222ZM11.4141 15.3438H9.65625V13.586L16.2188 7.02347L17.9766 8.78129L11.4141 15.3438ZM23.7188 13.0703V22.375C23.7157 22.9957 23.4678 23.59 23.0289 24.0289C22.59 24.4678 21.9957 24.7157 21.375 24.7188H2.625C2.00435 24.7157 1.40999 24.4678 0.971122 24.0289C0.532249 23.59 0.28433 22.9957 0.28125 22.375V3.62503C0.28433 3.00438 0.532249 2.41003 0.971122 1.97116C1.40999 1.53228 2.00435 1.28436 2.625 1.28128H11.9297C12.3026 1.28128 12.6603 1.42944 12.9241 1.69317C13.1878 1.95689 13.3359 2.31457 13.3359 2.68753C13.3359 3.0605 13.1878 3.41818 12.9241 3.6819C12.6603 3.94563 12.3026 4.09378 11.9297 4.09378H3.09375V21.9063H20.9062V13.0703C20.9062 12.6974 21.0544 12.3397 21.3181 12.076C21.5819 11.8123 21.9395 11.6641 22.3125 11.6641C22.6855 11.6641 23.0431 11.8123 23.3069 12.076C23.5706 12.3397 23.7188 12.6974 23.7188 13.0703Z" fill="black"/>
</svg>
