<svg width="26" height="25" viewBox="0 0 26 25" fill="none" xmlns="http://www.w3.org/2000/svg">
<path d="M23.4609 10.9375C23.8164 10.9375 24.1465 10.9985 24.4512 11.1206C24.7559 11.2427 25.0267 11.4136 25.2637 11.6333C25.5007 11.853 25.6784 12.1094 25.7969 12.4023C25.9154 12.6953 25.9831 13.0127 26 13.3545C26 13.6719 25.9365 13.9811 25.8096 14.2822C25.6826 14.5833 25.5007 14.8478 25.2637 15.0757L16.1611 23.8525L11.375 25L12.5684 20.3979L21.6709 11.6333C21.9079 11.4054 22.1829 11.2345 22.4961 11.1206C22.8092 11.0067 23.1309 10.9456 23.4609 10.9375ZM24.1084 13.9771C24.2861 13.8062 24.375 13.5986 24.375 13.3545C24.375 13.1022 24.2904 12.8988 24.1211 12.7441C23.9518 12.5895 23.7318 12.5081 23.4609 12.5C23.3424 12.5 23.2282 12.5163 23.1182 12.5488C23.0081 12.5814 22.9108 12.6424 22.8262 12.7319L14.041 21.2036L13.6094 22.8516L15.3232 22.4365L24.1084 13.9771ZM8.125 10.9375H6.5V9.375H8.125V10.9375ZM19.5 10.9375H9.75V9.375H19.5V10.9375ZM6.5 14.0625H8.125V15.625H6.5V14.0625ZM8.125 6.25H6.5V4.6875H8.125V6.25ZM19.5 6.25H9.75V4.6875H19.5V6.25ZM4.875 20.3125H10.499L10.0928 21.875H3.25V0H22.75V9.06982C22.1829 9.1512 21.6413 9.33024 21.125 9.60693V1.5625H4.875V20.3125ZM9.75 14.0625H16.2754L14.6504 15.625H9.75V14.0625Z" fill="#868e96"/>
</svg>
