<svg width="30" height="30" viewBox="0 0 30 30" fill="none" xmlns="http://www.w3.org/2000/svg">
<path d="M15 27.5C8.09625 27.5 2.5 21.9037 2.5 15C2.5 8.09625 8.09625 2.5 15 2.5C21.9037 2.5 27.5 8.09625 27.5 15C27.5 21.9037 21.9037 27.5 15 27.5ZM12.1375 24.5837C10.9043 21.9679 10.1898 19.1378 10.0338 16.25H5.0775C5.32073 18.1736 6.1174 19.9852 7.37071 21.4646C8.62402 22.9441 10.28 24.0277 12.1375 24.5837ZM12.5375 16.25C12.7262 19.2987 13.5975 22.1625 15 24.69C16.4404 22.0957 17.2818 19.2118 17.4625 16.25H12.5375ZM24.9225 16.25H19.9662C19.8102 19.1378 19.0957 21.9679 17.8625 24.5837C19.72 24.0277 21.376 22.9441 22.6293 21.4646C23.8826 19.9852 24.6793 18.1736 24.9225 16.25ZM5.0775 13.75H10.0338C10.1898 10.8622 10.9043 8.03211 12.1375 5.41625C10.28 5.97235 8.62402 7.05594 7.37071 8.53537C6.1174 10.0148 5.32073 11.8264 5.0775 13.75ZM12.5387 13.75H17.4613C17.2809 10.7882 16.44 7.90442 15 5.31C13.5596 7.90431 12.7182 10.7882 12.5375 13.75H12.5387ZM17.8625 5.41625C19.0957 8.03211 19.8102 10.8622 19.9662 13.75H24.9225C24.6793 11.8264 23.8826 10.0148 22.6293 8.53537C21.376 7.05594 19.72 5.97235 17.8625 5.41625Z" fill="#868e96"/>
</svg>
