<svg width="30" height="30" viewBox="0 0 30 30" fill="none" xmlns="http://www.w3.org/2000/svg">
<g clip-path="url(#clip0_243_1879)">
<path d="M20.625 22.5V7.5H3.75V22.5H20.625ZM22.5 10.3125L28.125 7.5V22.5L22.5 19.6875V23.4375C22.5 23.6861 22.4012 23.9246 22.2254 24.1004C22.0496 24.2762 21.8111 24.375 21.5625 24.375H2.8125C2.56386 24.375 2.3254 24.2762 2.14959 24.1004C1.97377 23.9246 1.875 23.6861 1.875 23.4375V6.5625C1.875 6.31386 1.97377 6.0754 2.14959 5.89959C2.3254 5.72377 2.56386 5.625 2.8125 5.625H21.5625C21.8111 5.625 22.0496 5.72377 22.2254 5.89959C22.4012 6.0754 22.5 6.31386 22.5 6.5625V10.3125ZM22.5 12.4088V17.5912L26.25 19.4662V10.5338L22.5 12.4088ZM5.625 9.375H11.25V11.25H5.625V9.375Z" fill="#868e96"/>
</g>
<defs>
<clipPath id="clip0_243_1879">
<rect width="30" height="30" fill="white"/>
</clipPath>
</defs>
</svg>
