<svg width="26" height="26" viewBox="0 0 26 26" fill="none" xmlns="http://www.w3.org/2000/svg">
<path d="M6.49984 17.3335H15.1665V16.7377C15.1665 15.6724 14.6566 14.9639 13.6368 14.6122C12.6163 14.2597 11.6818 14.0835 10.8332 14.0835C9.98456 14.0835 9.05036 14.2597 8.03059 14.6122C7.01009 14.9639 6.49984 15.6724 6.49984 16.7377V17.3335ZM10.8332 13.0002C11.429 13.0002 11.9393 12.7878 12.3639 12.3632C12.7879 11.9392 12.9998 11.4293 12.9998 10.8335C12.9998 10.2377 12.7879 9.72741 12.3639 9.30275C11.9393 8.8788 11.429 8.66683 10.8332 8.66683C10.2373 8.66683 9.72745 8.8788 9.3035 9.30275C8.87884 9.72741 8.6665 10.2377 8.6665 10.8335C8.6665 11.4293 8.87884 11.9392 9.3035 12.3632C9.72745 12.7878 10.2373 13.0002 10.8332 13.0002ZM2.1665 21.6668V4.3335H19.4998V11.3752L23.8332 7.04183V18.9585L19.4998 14.6252V21.6668H2.1665ZM4.33317 19.5002H17.3332V6.50016H4.33317V19.5002ZM4.33317 19.5002V6.50016V19.5002Z" fill="white"/>
</svg>
