<svg width="30" height="30" viewBox="0 0 30 30" fill="none" xmlns="http://www.w3.org/2000/svg">
<path fill-rule="evenodd" clip-rule="evenodd" d="M15 26.25C21.2131 26.25 26.25 21.2131 26.25 15C26.25 8.78687 21.2131 3.75 15 3.75C8.78687 3.75 3.75 8.78687 3.75 15C3.75 21.2131 8.78687 26.25 15 26.25ZM15 27.5C21.9037 27.5 27.5 21.9037 27.5 15C27.5 8.09625 21.9037 2.5 15 2.5C8.09625 2.5 2.5 8.09625 2.5 15C2.5 21.9037 8.09625 27.5 15 27.5Z" fill="#868e96"/>
<path d="M7.5 22.2686C7.5 21.623 7.9825 21.0774 8.625 21.0061C13.4469 20.4724 16.575 20.5205 21.3862 21.018C21.6265 21.0432 21.8542 21.1379 22.0416 21.2904C22.2289 21.4429 22.3678 21.6467 22.4412 21.8768C22.5147 22.107 22.5195 22.3535 22.4551 22.5863C22.3908 22.8192 22.26 23.0282 22.0788 23.188C16.4006 28.1374 13.1556 28.0692 7.9 23.193C7.64375 22.9555 7.5 22.618 7.5 22.2692V22.2686Z" fill="#868e96"/>
<path fill-rule="evenodd" clip-rule="evenodd" d="M21.3219 21.6395C16.5488 21.1458 13.4656 21.0995 8.69313 21.6277C8.53603 21.646 8.3912 21.7216 8.28638 21.84C8.18155 21.9584 8.12409 22.1114 8.125 22.2695C8.125 22.4483 8.19938 22.6177 8.325 22.7352C10.93 25.1514 12.9038 26.2433 14.8331 26.2502C16.7694 26.257 18.8494 25.1739 21.6681 22.7177C21.7577 22.638 21.8221 22.534 21.8537 22.4183C21.8852 22.3026 21.8825 22.1803 21.8458 22.0662C21.8092 21.952 21.7401 21.851 21.6471 21.7754C21.5541 21.6998 21.4411 21.6528 21.3219 21.6402V21.6395ZM8.55625 20.3852C13.4288 19.8458 16.6025 19.8945 21.4513 20.3964C21.8127 20.4341 22.1553 20.5764 22.4371 20.8059C22.7189 21.0353 22.9277 21.3419 23.038 21.6882C23.1482 22.0345 23.1551 22.4054 23.0577 22.7555C22.9604 23.1057 22.7631 23.4198 22.49 23.6595C19.6306 26.152 17.2494 27.5095 14.8294 27.5002C12.4025 27.4914 10.1263 26.1108 7.47563 23.6514C7.28585 23.4746 7.13456 23.2606 7.03122 23.0228C6.92787 22.7849 6.8747 22.5283 6.875 22.2689C6.87409 21.8029 7.04513 21.353 7.35536 21.0053C7.66558 20.6576 8.09318 20.4366 8.55625 20.3845V20.3852Z" fill="#868e96"/>
<path d="M20 12.5C20 13.8261 19.4732 15.0979 18.5355 16.0355C17.5979 16.9732 16.3261 17.5 15 17.5C13.6739 17.5 12.4021 16.9732 11.4645 16.0355C10.5268 15.0979 10 13.8261 10 12.5C10 11.1739 10.5268 9.90215 11.4645 8.96447C12.4021 8.02678 13.6739 7.5 15 7.5C16.3261 7.5 17.5979 8.02678 18.5355 8.96447C19.4732 9.90215 20 11.1739 20 12.5Z" fill="#868e96"/>
<path fill-rule="evenodd" clip-rule="evenodd" d="M15 16.25C15.9946 16.25 16.9484 15.8549 17.6517 15.1517C18.3549 14.4484 18.75 13.4946 18.75 12.5C18.75 11.5054 18.3549 10.5516 17.6517 9.84835C16.9484 9.14509 15.9946 8.75 15 8.75C14.0054 8.75 13.0516 9.14509 12.3483 9.84835C11.6451 10.5516 11.25 11.5054 11.25 12.5C11.25 13.4946 11.6451 14.4484 12.3483 15.1517C13.0516 15.8549 14.0054 16.25 15 16.25ZM15 17.5C16.3261 17.5 17.5979 16.9732 18.5355 16.0355C19.4732 15.0979 20 13.8261 20 12.5C20 11.1739 19.4732 9.90215 18.5355 8.96447C17.5979 8.02678 16.3261 7.5 15 7.5C13.6739 7.5 12.4021 8.02678 11.4645 8.96447C10.5268 9.90215 10 11.1739 10 12.5C10 13.8261 10.5268 15.0979 11.4645 16.0355C12.4021 16.9732 13.6739 17.5 15 17.5Z" fill="#868e96"/>
</svg>
