<svg width="30" height="30" viewBox="0 0 30 30" fill="none" xmlns="http://www.w3.org/2000/svg">
<path d="M11.25 6.25H8.75C8.08696 6.25 7.45107 6.51339 6.98223 6.98223C6.51339 7.45107 6.25 8.08696 6.25 8.75V23.75C6.25 24.413 6.51339 25.0489 6.98223 25.5178C7.45107 25.9866 8.08696 26.25 8.75 26.25H21.25C21.913 26.25 22.5489 25.9866 23.0178 25.5178C23.4866 25.0489 23.75 24.413 23.75 23.75V8.75C23.75 8.08696 23.4866 7.45107 23.0178 6.98223C22.5489 6.51339 21.913 6.25 21.25 6.25H18.75" stroke="#868e96" stroke-width="2" stroke-linecap="round" stroke-linejoin="round"/>
<path d="M16.25 3.75H13.75C12.3693 3.75 11.25 4.86929 11.25 6.25C11.25 7.63071 12.3693 8.75 13.75 8.75H16.25C17.6307 8.75 18.75 7.63071 18.75 6.25C18.75 4.86929 17.6307 3.75 16.25 3.75Z" stroke="#868e96" stroke-width="2" stroke-linecap="round" stroke-linejoin="round"/>
<path d="M17.5 13.75H14.375C13.8777 13.75 13.4008 13.9475 13.0492 14.2992C12.6975 14.6508 12.5 15.1277 12.5 15.625C12.5 16.1223 12.6975 16.5992 13.0492 16.9508C13.4008 17.3025 13.8777 17.5 14.375 17.5H15.625C16.1223 17.5 16.5992 17.6975 16.9508 18.0492C17.3025 18.4008 17.5 18.8777 17.5 19.375C17.5 19.8723 17.3025 20.3492 16.9508 20.7008C16.5992 21.0525 16.1223 21.25 15.625 21.25H12.5M15 21.25V22.5M15 12.5V13.75" stroke="#868e96" stroke-width="2" stroke-linecap="round" stroke-linejoin="round"/>
</svg>
