<svg width="26" height="26" viewBox="0 0 24 24" fill="none" xmlns="http://www.w3.org/2000/svg">
<path d="M12 2V8C12 8.53043 12.2107 9.03914 12.5858 9.41421C12.9609 9.78929 13.4696 10 14 10H20V20C20 20.5304 19.7893 21.0391 19.4142 21.4142C19.0391 21.7893 18.5304 22 18 22H11.19C12.225 20.9226 12.8573 19.5215 12.9804 18.0326C13.1035 16.5436 12.71 15.0578 11.866 13.825C11.022 12.5922 9.77904 11.6878 8.3464 11.264C6.91376 10.8402 5.37885 10.9228 4 11.498V4C4 3.46957 4.21071 2.96086 4.58579 2.58579C4.96086 2.21071 5.46957 2 6 2H12ZM13.5 2.5V8C13.5 8.13261 13.5527 8.25979 13.6464 8.35355C13.7402 8.44732 13.8674 8.5 14 8.5H19.5L13.5 2.5ZM1 17.5C1 18.2223 1.14226 18.9375 1.41866 19.6048C1.69506 20.272 2.10019 20.8784 2.61091 21.3891C3.12163 21.8998 3.72795 22.3049 4.39524 22.5813C5.06253 22.8577 5.77773 23 6.5 23C7.22227 23 7.93747 22.8577 8.60476 22.5813C9.27205 22.3049 9.87837 21.8998 10.3891 21.3891C10.8998 20.8784 11.3049 20.272 11.5813 19.6048C11.8577 18.9375 12 18.2223 12 17.5C12 16.0413 11.4205 14.6424 10.3891 13.6109C9.35764 12.5795 7.95869 12 6.5 12C5.04131 12 3.64236 12.5795 2.61091 13.6109C1.57946 14.6424 1 16.0413 1 17.5V17.5ZM9.5 14C9.63261 14 9.75979 14.0527 9.85355 14.1464C9.94732 14.2402 10 14.3674 10 14.5V16.5C10 16.6326 9.94732 16.7598 9.85355 16.8536C9.75979 16.9473 9.63261 17 9.5 17H7.5C7.36739 17 7.24021 16.9473 7.14645 16.8536C7.05268 16.7598 7 16.6326 7 16.5C7 16.3674 7.05268 16.2402 7.14645 16.1464C7.24021 16.0527 7.36739 16 7.5 16H8.5C8.26735 15.6893 7.96543 15.4371 7.61825 15.2635C7.27106 15.0899 6.88817 14.9997 6.5 15C5.667 15 4.928 15.407 4.473 16.036C4.43518 16.0908 4.38679 16.1375 4.33066 16.1734C4.27454 16.2093 4.21182 16.2336 4.14617 16.2449C4.08053 16.2561 4.0133 16.2542 3.94841 16.2392C3.88353 16.2241 3.82231 16.1962 3.76835 16.1572C3.71438 16.1182 3.66876 16.0687 3.63417 16.0118C3.59957 15.9549 3.57669 15.8916 3.56688 15.8258C3.55706 15.7599 3.56051 15.6927 3.57702 15.6282C3.59352 15.5637 3.62276 15.5031 3.663 15.45C3.98719 15.0008 4.41347 14.6351 4.90672 14.383C5.39997 14.1309 5.94606 13.9996 6.5 14C7.48 14 8.365 14.403 9 15.05V14.5C9 14.3674 9.05268 14.2402 9.14645 14.1464C9.24021 14.0527 9.36739 14 9.5 14ZM4 19.95V20.5C4 20.6326 3.94732 20.7598 3.85355 20.8536C3.75979 20.9473 3.63261 21 3.5 21C3.36739 21 3.24021 20.9473 3.14645 20.8536C3.05268 20.7598 3 20.6326 3 20.5V18.5C3 18.3674 3.05268 18.2402 3.14645 18.1464C3.24021 18.0527 3.36739 18 3.5 18H5.5C5.63261 18 5.75979 18.0527 5.85355 18.1464C5.94732 18.2402 6 18.3674 6 18.5C6 18.6326 5.94732 18.7598 5.85355 18.8536C5.75979 18.9473 5.63261 19 5.5 19H4.5C4.956 19.608 5.683 20 6.5 20C7.266 20 7.952 19.656 8.411 19.112C8.49727 19.0132 8.61891 18.9523 8.7497 18.9423C8.88048 18.9324 9.00994 18.9742 9.11016 19.0588C9.21038 19.1434 9.27334 19.264 9.28547 19.3946C9.2976 19.5252 9.25793 19.6554 9.175 19.757C8.84677 20.1468 8.43725 20.46 7.97514 20.6747C7.51304 20.8894 7.00955 21.0005 6.5 21C6.03431 21.0006 5.57321 20.908 5.14386 20.7277C4.7145 20.5474 4.32558 20.283 4 19.95V19.95Z" fill="black"/>
</svg>
