<svg width="25" height="25" viewBox="0 0 25 25" fill="none" xmlns="http://www.w3.org/2000/svg">
<path d="M12.5 25C5.60625 25 0 19.3937 0 12.5C0 5.60625 5.60625 0 12.5 0C19.3937 0 25 5.60625 25 12.5C25 19.3937 19.3937 25 12.5 25ZM12.5 2.5C6.98438 2.5 2.5 6.9875 2.5 12.5C2.5 18.0125 6.98438 22.5 12.5 22.5C18.0156 22.5 22.5 18.0125 22.5 12.5C22.5 6.9875 18.0156 2.5 12.5 2.5Z" fill="#868E96"/>
<path d="M9.7775 18.49C9.38013 18.49 8.97886 18.3447 8.67499 18.054L4 13.5817L6.20504 11.4723L9.7775 14.8898L18.025 7L20.23 9.10942L10.88 18.054C10.5761 18.3447 10.1788 18.49 9.7775 18.49Z" fill="#868E96"/>
</svg>
