<svg width="80" height="80" viewBox="0 0 80 80" fill="none" xmlns="http://www.w3.org/2000/svg">
<path d="M36.6663 63.3337H43.333V49.417L48.6663 54.7503L53.333 50.0003L39.9997 36.667L26.6663 50.0003L31.4163 54.667L36.6663 49.417V63.3337ZM19.9997 73.3337C18.1663 73.3337 16.5975 72.6814 15.293 71.377C13.9863 70.0703 13.333 68.5003 13.333 66.667V13.3337C13.333 11.5003 13.9863 9.93033 15.293 8.62366C16.5975 7.31921 18.1663 6.66699 19.9997 6.66699H46.6663L66.6663 26.667V66.667C66.6663 68.5003 66.0141 70.0703 64.7097 71.377C63.403 72.6814 61.833 73.3337 59.9997 73.3337H19.9997ZM43.333 30.0003V13.3337H19.9997V66.667H59.9997V30.0003H43.333ZM19.9997 13.3337V30.0003V13.3337V66.667V13.3337Z" fill="#495057"/>
</svg>
