<svg width="100" height="90" viewBox="0 0 67 57" fill="none" xmlns="http://www.w3.org/2000/svg">
<path d="M33.5 39.1871V23.1559M33.5 23.1559L41.875 30.2809M33.5 23.1559L25.125 30.2809M18.8437 46.3121C15.8551 46.3149 12.9631 45.4111 10.6873 43.763C8.41149 42.1149 6.90086 39.8306 6.42671 37.3202C5.95256 34.8098 6.54596 32.2378 8.10034 30.0662C9.65472 27.8945 12.0683 26.2654 14.9075 25.4715C14.178 22.2918 14.9319 18.9954 17.0096 16.2803C19.0872 13.5652 22.3254 11.6447 26.0385 10.9255C29.7515 10.2062 33.6478 10.7447 36.9024 12.4269C40.1569 14.109 42.514 16.8028 43.4746 19.9378C44.9598 19.5268 46.5505 19.4774 48.067 19.795C49.5834 20.1126 50.9653 20.7847 52.0565 21.7353C53.1477 22.6858 53.9047 23.877 54.2421 25.1743C54.5795 26.4716 54.4837 27.8233 53.9657 29.0768C56.2511 29.8194 58.1588 31.2192 59.358 33.0334C60.5571 34.8475 60.972 36.9615 60.5307 39.0087C60.0893 41.0559 58.8196 42.907 56.9418 44.241C55.0639 45.5751 52.6964 46.3078 50.25 46.3121H18.8437Z" stroke="black" stroke-width="1.5" stroke-linecap="round" stroke-linejoin="round"/>
</svg>
