<svg width="30" height="30" viewBox="0 0 30 30" fill="none" xmlns="http://www.w3.org/2000/svg">
<path d="M8.53203 27.1875H21.4684C22.6285 27.1875 23.5514 26.233 23.4266 25.1332C22.6209 18.0469 17.8127 18.1641 17.8127 15C17.8127 11.8359 22.6824 12.0117 23.426 4.8668C23.5432 3.76641 22.6285 2.8125 21.4684 2.8125H8.53203C7.37188 2.8125 6.45957 3.76641 6.57442 4.8668C7.31797 12.0117 12.1877 11.7773 12.1877 15C12.1877 18.2227 7.3795 18.0469 6.57442 25.1332C6.44903 26.233 7.37188 27.1875 8.53203 27.1875Z" stroke="#868e96" stroke-width="1.5" stroke-linecap="round" stroke-linejoin="round"/>
<path d="M20.1153 25.3125H9.91002C8.99595 25.3125 8.73814 24.2578 9.37916 23.6039C10.9307 22.0312 14.0626 20.9051 14.0626 19.1016V13.125C14.0626 11.9619 11.836 11.0742 10.4585 9.1875C10.2311 8.87637 10.254 8.4375 10.8317 8.4375H19.1948C19.6876 8.4375 19.7942 8.87285 19.5698 9.18457C18.2122 11.0742 15.9376 11.9561 15.9376 13.125V19.1016C15.9376 20.8904 19.2018 21.8555 20.6485 23.6057C21.2315 24.3111 21.0276 25.3125 20.1153 25.3125Z" fill="#868e96"/>
</svg>
