<svg height="1em" viewBox="0 0 30 27" fill="none" xmlns="http://www.w3.org/2000/svg">
<g clip-path="url(#clip0_176_13662)">
<path d="M0.951994 1.95969C0.439382 1.95969 0 1.51318 0 0.967442C0 0.446512 0.439382 0 0.951994 0H3.44182C3.46623 0 3.51505 0 3.53946 0C4.41823 0.0248062 5.19935 0.19845 5.85842 0.620155C6.59072 1.09147 7.12775 1.81085 7.42067 2.87752C7.42067 2.90233 7.42067 2.92713 7.44508 2.95194L7.68918 3.94419H29.048C29.585 3.94419 30 4.3907 30 4.91163C30 5.01085 29.9756 5.11008 29.9512 5.2093L27.4614 15.4047C27.3637 15.8512 26.9731 16.1488 26.5338 16.1488H10.9113C11.2531 17.4388 11.5948 18.1333 12.0586 18.4558C12.62 18.8279 13.5964 18.8527 15.2319 18.8279H15.2563H26.2897C26.8267 18.8279 27.2417 19.2744 27.2417 19.7954C27.2417 20.3411 26.8023 20.7628 26.2897 20.7628H15.2563C13.2303 20.7876 11.9854 20.738 10.9845 20.0682C9.95932 19.3736 9.42229 18.1829 8.88527 16.0248L5.61432 3.44806C5.61432 3.42326 5.61432 3.42326 5.58991 3.39845C5.44345 2.85271 5.19935 2.48062 4.85761 2.28217C4.51587 2.05891 4.05207 1.95969 3.51505 1.95969C3.49064 1.95969 3.46623 1.95969 3.44182 1.95969H0.951994ZM23.4337 21.9039C24.7274 21.9039 25.7771 22.9705 25.7771 24.2853C25.7771 25.6 24.7274 26.6667 23.4337 26.6667C22.14 26.6667 21.0903 25.6 21.0903 24.2853C21.0903 22.9705 22.14 21.9039 23.4337 21.9039ZM13.157 21.9039C14.4508 21.9039 15.5004 22.9705 15.5004 24.2853C15.5004 25.6 14.4508 26.6667 13.157 26.6667C11.8633 26.6667 10.8137 25.6 10.8137 24.2853C10.8137 22.9705 11.8633 21.9039 13.157 21.9039ZM8.2262 5.87907L10.3987 14.1891H25.8015L27.8275 5.87907H8.2262Z" fill="#525252"/>
</g>
<defs>
<clipPath id="clip0_176_13662">
<rect width="30" height="26.6667" fill="white"/>
</clipPath>
</defs>
</svg>