<svg width="25" height="25" viewBox="0 0 17 18" fill="none" xmlns="http://www.w3.org/2000/svg">
    <path
        d="M11.44 5.44319L16.3452 6.24138C16.6331 6.28709 16.8699 6.50861 16.9627 6.81101C17.0523 7.11693 16.9787 7.45097 16.7739 7.6725L13.2158 11.5474L14.0574 17.0152C14.1054 17.3317 13.987 17.6552 13.747 17.8416C13.5102 18.0279 13.1678 18.0525 12.9375 17.9013L8.55388 15.3274L4.1447 17.9013C3.91432 18.0525 3.60075 18.0279 3.36077 17.8416C3.12399 17.6552 3.0056 17.3317 3.0248 17.0152L3.89192 11.5474L0.337374 7.6725C0.130673 7.45097 0.0574002 7.11693 0.148272 6.81101C0.238823 6.50861 0.477841 6.28709 0.765494 6.24138L5.66775 5.44319L7.86275 0.4754C7.99393 0.184569 8.25951 0 8.55388 0C8.84825 0 9.11703 0.184604 9.24502 0.4754L11.44 5.44319ZM8.52829 13.5271C8.68187 13.5271 8.80346 13.5587 8.91545 13.6255L12.2815 15.6017L11.6352 11.3962C11.5936 11.1255 11.6768 10.8477 11.8528 10.6543L14.6013 7.66195L10.8161 7.05012C10.5633 7.00793 10.3457 6.83211 10.2369 6.58246L8.52829 2.78102V13.5271Z"
        fill="#F59F00" />
</svg>
    