<svg width="25" height="25" viewBox="0 0 22 16" fill="none" xmlns="http://www.w3.org/2000/svg">
    <path d="M4.64588 5.71839H2.02844C1.30579 5.71839 0.719727 6.22218 0.719727 6.81175V14.6551C0.719727 15.2763 1.30579 15.7485 2.02844 15.7485H4.64588C5.36853 15.7485 5.95459 15.2447 5.95459 14.6551V6.84339C5.95459 6.25276 5.36976 5.71839 4.64588 5.71839ZM21.6592 6.9805C21.6592 5.68358 20.4302 4.62784 18.9203 4.62784H14.8363C15.226 3.74964 15.4428 2.99026 15.4428 2.54378C15.4428 1.3555 14.3713 0.125732 12.5775 0.125732C10.6713 0.125732 10.1498 1.2662 9.73065 2.18237C8.43584 5.01245 7.26331 4.5164 7.26331 5.46843C7.26331 5.91983 7.68701 6.31183 8.24567 6.31183C8.46062 6.31183 8.67713 6.25132 8.8579 6.1269C11.9972 3.96937 11.2287 1.81323 12.5775 1.81323C13.2351 1.81323 13.4797 2.26147 13.4797 2.54413C13.4797 2.80443 13.1691 3.93456 12.4348 5.06097C12.3511 5.18915 12.3094 5.33118 12.3094 5.473C12.3094 5.96237 12.7769 6.28511 13.2909 6.28511H18.9184C19.3485 6.31604 19.6961 6.61487 19.6961 6.9805C19.6961 7.32535 19.3785 7.61437 18.9735 7.63827C18.4557 7.66848 18.059 8.03905 18.059 8.47991C18.059 9.02378 18.5248 9.04065 18.5248 9.49628C18.5248 10.3882 17.0922 9.93011 17.0922 10.9781C17.0922 11.3726 17.3536 11.4362 17.3536 11.7603C17.3536 12.557 16.1361 12.2441 16.1361 13.1891C16.1361 13.3478 16.1815 13.3987 16.1815 13.5215C16.1815 13.8889 15.8332 14.1877 15.4057 14.1877H13.2573C12.2095 14.1877 11.1707 13.8901 10.3331 13.3507L8.83385 12.3835C8.65738 12.2694 8.45064 12.2144 8.24575 12.2144C7.67932 12.2144 7.26298 12.6145 7.26298 13.0595C7.26298 13.3157 7.39843 13.5665 7.65543 13.7321L9.15514 14.6996C10.3306 15.4567 11.7866 15.875 13.2589 15.875H15.4072C16.8521 15.875 18.0394 14.9086 18.1392 13.6883C18.8659 13.2583 19.3182 12.5454 19.3182 11.7607C19.3182 11.6536 19.3093 11.546 19.292 11.44C20.0216 11.0128 20.4895 10.2946 20.4895 9.49656C20.4895 9.30985 20.4633 9.12601 20.4128 8.94672C21.1643 8.49573 21.6592 7.79612 21.6592 6.9805Z" fill="black"/>
    </svg>
    