<svg
    width="25"
    height="25"
    viewBox="0 0 30 29"
    fill="none"
    xmlns="http://www.w3.org/2000/svg"
    style="padding-top: 0;"
>
    <path
        d="M16.5087 1.11409C16.2193 0.50129 15.6079 0.111328 14.9365 0.111328C14.265 0.111328 13.659 0.50129 13.3642 1.11409L9.85404 8.48437L2.01478 9.66539C1.35969 9.76567 0.813779 10.2336 0.611793 10.8743C0.409806 11.5149 0.573579 12.2224 1.04306 12.696L6.73144 18.4395L5.3885 26.5563C5.27932 27.2248 5.55227 27.9045 6.09273 28.3C6.63318 28.6955 7.34832 28.7457 7.9379 28.4281L14.9419 24.6121L21.9459 28.4281C22.5355 28.7457 23.2507 28.7011 23.7911 28.3C24.3316 27.8989 24.6045 27.2248 24.4953 26.5563L23.1469 18.4395L28.8353 12.696C29.3048 12.2224 29.474 11.5149 29.2666 10.8743C29.0591 10.2336 28.5187 9.76567 27.8636 9.66539L20.0189 8.48437L16.5087 1.11409Z"
        fill="#EA9A00"
    ></path>
</svg>