<svg width="25" height="25" viewBox="0 0 22 16" fill="none" xmlns="http://www.w3.org/2000/svg">
    <path d="M5.50342 9.12499V1.25105C5.50342 0.629836 4.91736 0.157688 4.1947 0.157688H1.57727C0.854614 0.157688 0.268555 0.661476 0.268555 1.25105V9.09441C0.268555 9.71562 0.854614 10.1878 1.57727 10.1878H4.1947C4.91859 10.25 5.50342 9.74726 5.50342 9.12499ZM19.9607 7.05429C20.0111 6.87527 20.0373 6.69148 20.0373 6.50445C20.0373 5.7064 19.5695 4.98816 18.8399 4.56101C18.8571 4.45501 18.8661 4.3474 18.8661 4.24031C18.8661 3.45563 18.4137 2.74266 17.687 2.3127C17.5873 1.09242 16.3999 0.125977 14.955 0.125977H12.8067C11.3368 0.125977 9.88049 0.543281 8.70469 1.30055L7.20475 2.26706C6.94771 2.43265 6.8123 2.68366 6.8123 2.9396C6.8123 3.3882 7.23314 3.78476 7.79507 3.78476C8.00008 3.78476 8.2069 3.72974 8.38317 3.61562L9.88247 2.64847C10.72 2.10918 11.7588 1.8114 12.8066 1.8114H14.955C15.3824 1.8114 15.7308 2.11012 15.7308 2.47761C15.7308 2.60066 15.6854 2.65129 15.6854 2.81005C15.6854 3.75821 16.9029 3.4397 16.9029 4.2388C16.9029 4.56414 16.6415 4.62411 16.6415 5.02103C16.6415 5.51216 17.0852 5.79271 17.4423 5.85036C17.8084 5.90911 18.0741 6.18368 18.0741 6.50286C18.0741 6.9613 17.6083 6.9729 17.6083 7.51923C17.6083 7.96009 18.0051 8.33064 18.5228 8.36087C18.9259 8.35507 19.2449 8.67499 19.2449 8.98788C19.2449 9.35456 18.8967 9.65339 18.4691 9.65339H12.8404C12.3316 9.65339 11.8589 10.0057 11.8589 10.4655C11.8589 10.6075 11.9006 10.7495 11.9843 10.8775C12.7177 12.0676 13.0285 13.1961 13.0285 13.4562C13.0285 13.739 12.7838 14.1871 12.1263 14.1871C11.6139 14.1871 11.5427 14.1553 11.1064 13.2003C10.0942 10.9886 8.58136 9.6882 7.79449 9.6882C7.23011 9.6882 6.81214 10.0844 6.81214 10.5316C6.81214 10.7791 6.93822 11.0245 7.18087 11.1911C10.0062 13.1328 8.91426 15.875 12.1247 15.875C13.9201 15.875 14.9916 14.6445 14.9916 13.4562C14.9916 13.0098 14.7737 12.2184 14.3851 11.3704H18.4691C19.9443 11.3715 21.208 10.3168 21.208 8.98788C21.208 8.2039 20.7132 7.47265 19.9607 7.05429Z" fill="black"/>
    </svg>
    