<svg
        width="24"
        height="21"
        viewBox="0 0 24 21"
        fill="none"
        xmlns="http://www.w3.org/2000/svg"
      >
        <g clip-path="url(#clip0_48_137)">
          <path
            d="M6.66667 10.1539C6.66667 7.3497 9.05417 5.07698 12 5.07698C14.9458 5.07698 17.3333 7.3497 17.3333 10.1539C17.3333 12.9581 14.9458 15.2308 12 15.2308C9.05417 15.2308 6.66667 12.9581 6.66667 10.1539ZM12 13.327C13.8417 13.327 15.3333 11.907 15.3333 10.1539C15.3333 8.40078 13.8417 6.98083 12 6.98083C11.9708 6.98083 11.9458 6.98083 11.8792 6.98083C11.9708 7.18311 12 7.39729 12 7.61544C12 9.01556 10.8042 10.1539 9.33334 10.1539C9.10417 10.1539 8.87917 10.1261 8.66667 10.0389C8.66667 10.1023 8.66667 10.1261 8.66667 10.1182C8.66667 11.907 10.1583 13.327 12 13.327ZM3.97584 4.46616C5.93751 2.73049 8.63334 1.26929 12 1.26929C15.3667 1.26929 18.0625 2.73049 20.025 4.46616C21.975 6.18756 23.2792 8.21436 23.8958 9.66604C24.0333 9.97938 24.0333 10.3284 23.8958 10.6418C23.2792 12.0577 21.975 14.0846 20.025 15.8416C18.0625 17.5789 15.3667 19.0385 12 19.0385C8.63334 19.0385 5.93751 17.5789 3.97584 15.8416C2.02584 14.0846 0.722505 12.0577 0.102547 10.6418C-0.0341823 10.3284 -0.0341823 9.97938 0.102547 9.66604C0.722505 8.21436 2.02584 6.18756 3.97584 4.46616ZM12 3.17313C9.28334 3.17313 7.05001 4.34717 5.33751 5.85835C3.73334 7.2783 2.62584 8.9283 2.06001 10.1539C2.62584 11.3438 3.73334 13.0295 5.33751 14.4495C7.05001 15.9606 9.28334 17.1347 12 17.1347C14.7167 17.1347 16.95 15.9606 18.6625 14.4495C20.2667 13.0295 21.3375 11.3438 21.9417 10.1539C21.3375 8.9283 20.2667 7.2783 18.6625 5.85835C16.95 4.34717 14.7167 3.17313 12 3.17313Z"
            fill="#9D9D9D"
          ></path>
        </g>
        <defs>
          <clipPath id="clip0_48_137">
            <rect width="24" height="20.3077" fill="white"></rect>
          </clipPath>
        </defs>
      </svg>